# xmcd CD database file
#
# Track frame offsets:
#	150
#	24674
#	56794
#	105766
#	141458
#	157570
#	180184
#	196349
#	216246
#
# Disc length: 3276 seconds
#
# Revision: 0
# Processed by: cddbd v1.4PL0 Copyright (c) Steve Scherf et al.
# Submitted via: CDex 1.50beta10
#
DISCID=6f0cca09
DTITLE=Brian Auger - Best of (2/2)
DYEAR=1970
DGENRE=Jazz
TTITLE0=No time to live
TTITLE1=Future pilot
TTITLE2=Bumpin' on sunset
TTITLE3=Compared to what
TTITLE4=Tomorrow city
TTITLE5=Maiden voyage
TTITLE6=All the time there is
TTITLE7=The light
TTITLE8=Happiness is just around the bend (alt)
EXTD=YEAR: 1970
EXTT0=
EXTT1=
EXTT2=
EXTT3=
EXTT4=
EXTT5=
EXTT6=
EXTT7=
EXTT8=
PLAYORDER=
